<?xml version="1.0" encoding="iso-8859-1"?>
<!-- Uploaded to: SVG Repo, www.svgrepo.com, Generator: SVG Repo Mixer Tools -->
<!DOCTYPE svg PUBLIC "-//W3C//DTD SVG 1.1//EN" "http://www.w3.org/Graphics/SVG/1.1/DTD/svg11.dtd">
<svg fill="#000000" version="1.1" id="Capa_1" xmlns="http://www.w3.org/2000/svg" xmlns:xlink="http://www.w3.org/1999/xlink" 
	 width="800px" height="800px" viewBox="0 0 410 410" xml:space="preserve">
<g>
	<g>
		<polygon points="329.221,14.753 293.066,61.697 0,61.697 45.13,295.874 293.773,295.874 326.021,94.721 351.982,61.013 
			410,61.013 410,14.753 		"/>
		<path d="M103.533,309.667c-23.596,0-42.791,19.195-42.791,42.79s19.195,42.79,42.791,42.79c23.594,0,42.789-19.195,42.789-42.79
			S127.127,309.667,103.533,309.667z"/>
		<path d="M245.779,309.667c-23.596,0-42.789,19.195-42.789,42.79s19.193,42.79,42.789,42.79s42.789-19.195,42.789-42.79
			S269.375,309.667,245.779,309.667z"/>
	</g>
</g>
</svg>